<svg width="148" height="27" viewBox="0 0 148 27" fill="none" xmlns="http://www.w3.org/2000/svg">
<path fill-rule="evenodd" clip-rule="evenodd" d="M9.55363 0.275879C9.09481 0.275879 8.72287 0.647826 8.72287 1.10665V8.99895H8.72283C3.90521 8.99895 -0.000244141 12.9044 -0.000244141 17.722C-0.000244141 22.5396 3.90521 26.4451 8.72283 26.4451H16.6151C17.074 26.4451 17.4459 26.0731 17.4459 25.6143V17.722H17.4459C22.2636 17.722 26.169 13.8166 26.169 8.99895C26.169 4.18133 22.2636 0.275879 17.4459 0.275879H9.55363ZM17.4459 17.722V9.82971C17.4459 9.37089 17.074 8.99895 16.6151 8.99895H8.72287V16.8913C8.72287 17.3501 9.09481 17.722 9.55363 17.722H17.4459Z" fill="#CB3CFF"/>
<path d="M9.46 0.275879C9.05288 0.275879 8.72284 0.605917 8.72284 1.01304L8.72284 8.99895H16.7088C17.1159 8.99895 17.4459 9.32899 17.4459 9.73611L17.4459 17.722C22.2635 17.722 26.169 13.8166 26.169 8.99895C26.169 4.18133 22.2635 0.275879 17.4459 0.275879H9.46Z" fill="#00C2FF"/>
<path d="M34.0798 19.3604H40.1198C44.3798 19.3604 46.7798 16.4404 46.7798 12.0804C46.7798 7.70035 44.3998 4.78035 40.1198 4.78035H34.0798V19.3604ZM36.7198 17.0804V7.04035H39.7198C42.2998 7.04035 44.0798 8.46035 44.0798 12.0204C44.0798 15.6404 42.2998 17.0804 39.7198 17.0804H36.7198ZM52.6137 19.5404C54.3337 19.5404 55.6137 18.6804 56.1337 17.3804H56.2737V19.3604H58.7737V8.72035H56.3737L56.2737 10.6804H56.1337C55.6137 9.38035 54.3337 8.52035 52.6137 8.52035C50.0537 8.52035 48.3337 10.4204 48.3337 14.0404C48.3337 17.6404 50.0537 19.5404 52.6137 19.5404ZM53.5537 17.5004C51.9537 17.5004 50.8737 16.3604 50.8737 14.0404C50.8737 11.7004 51.9537 10.5604 53.5537 10.5604C55.3337 10.5604 56.2337 11.9604 56.2337 13.4804V14.5804C56.2337 16.0804 55.3337 17.5004 53.5537 17.5004ZM65.5946 19.5604C68.4746 19.5604 70.2546 18.5004 70.2546 16.2404C70.2546 13.7404 68.3346 13.2804 66.1146 12.9804C64.4346 12.7604 63.6746 12.4604 63.6746 11.5404C63.6746 10.7604 64.3346 10.2404 65.5946 10.2404C66.7946 10.2404 67.5746 10.7804 67.5946 11.8604H70.0346C69.9946 9.76035 68.3346 8.52035 65.6546 8.52035C62.9746 8.52035 61.1746 9.66035 61.1746 11.8004C61.1746 14.0604 62.9546 14.6204 65.3546 14.9604C67.0146 15.2004 67.7346 15.4004 67.7346 16.4804C67.7346 17.3404 67.0146 17.8404 65.6546 17.8404C64.3346 17.8404 63.3746 17.3004 63.3546 16.0204H60.8946C60.8746 18.1404 62.5746 19.5604 65.5946 19.5604ZM72.3921 19.3604H74.8921V13.5004C74.8921 11.9004 75.8721 10.5804 77.5521 10.5804C79.1121 10.5804 79.7921 11.5204 79.7921 13.5204V19.3604H82.2921V12.9804C82.2921 9.76035 80.6721 8.52035 78.5121 8.52035C76.9721 8.52035 75.6121 9.28035 75.0121 10.7404H74.8921V4.78035H72.3921V19.3604ZM88.4926 19.5404C90.2126 19.5404 91.4926 18.6804 92.0126 17.3804H92.1526L92.2326 19.3604H94.6326L94.6526 4.78035H92.1526V10.6804H92.0126C91.4926 9.38035 90.2126 8.52035 88.4926 8.52035C85.9326 8.52035 84.2126 10.4204 84.2126 14.0404C84.2126 17.6404 85.9326 19.5404 88.4926 19.5404ZM89.4326 17.5004C87.8326 17.5004 86.7526 16.3604 86.7526 14.0404C86.7526 11.7004 87.8326 10.5604 89.4326 10.5604C91.2126 10.5604 92.1126 11.9604 92.1126 13.4804V14.5804C92.1126 16.0804 91.2126 17.5004 89.4326 17.5004ZM100.954 19.5404C102.674 19.5404 103.954 18.6804 104.474 17.3804H104.614V19.3604H107.114V8.72035H104.714L104.614 10.6804H104.474C103.954 9.38035 102.674 8.52035 100.954 8.52035C98.3935 8.52035 96.6735 10.4204 96.6735 14.0404C96.6735 17.6404 98.3935 19.5404 100.954 19.5404ZM101.894 17.5004C100.294 17.5004 99.2135 16.3604 99.2135 14.0404C99.2135 11.7004 100.294 10.5604 101.894 10.5604C103.674 10.5604 104.574 11.9604 104.574 13.4804V14.5804C104.574 16.0804 103.674 17.5004 101.894 17.5004ZM109.794 19.3604H112.294V13.5404C112.374 11.8804 113.294 10.9204 115.234 10.9204C115.494 10.9204 115.734 10.9404 115.894 10.9404V8.58035H115.274C113.894 8.58035 112.734 9.14035 112.254 10.5004H112.174L112.054 8.72035H109.794V19.3604ZM117.529 19.3604H120.069V16.2204L121.749 14.5604L122.389 15.6604L124.789 19.3604H127.729L123.509 12.9004L127.629 8.72035H124.529L120.969 12.4404L120.069 13.4604V4.78035H117.529V19.3604ZM132.634 19.3604H135.694L139.674 13.4204H139.754L143.714 19.3604H146.854L141.494 11.5204L146.154 4.78035H143.054L139.754 9.82035H139.674L136.374 4.78035H133.274L137.994 11.5404L132.634 19.3604Z" fill="white"/>
</svg>
